<?xml version="1.0" standalone="no"?>
<!DOCTYPE svg PUBLIC "-//W3C//DTD SVG 20010904//EN"
 "http://www.w3.org/TR/2001/REC-SVG-20010904/DTD/svg10.dtd">
<svg version="1.0" xmlns="http://www.w3.org/2000/svg"
 width="512.000000pt" height="512.000000pt" viewBox="0 0 512.000000 512.000000"
 preserveAspectRatio="xMidYMid meet">
<metadata>
Created by potrace 1.14, written by Peter Selinger 2001-2017
</metadata>
<g transform="translate(0.000000,512.000000) scale(0.100000,-0.100000)"
fill="#000000" stroke="none">
<path d="M2370 5114 c-850 -77 -1578 -531 -2011 -1255 -170 -285 -282 -603
-336 -956 -23 -153 -23 -527 0 -683 86 -574 332 -1066 731 -1466 402 -401 887
-643 1466 -730 164 -25 542 -26 700 -1 348 54 711 187 982 358 328 208 625
503 832 829 75 118 201 383 249 525 100 296 132 492 132 825 0 333 -32 530
-132 825 -125 366 -331 695 -617 981 -214 213 -402 350 -666 483 -243 123
-490 203 -765 246 -97 16 -466 28 -565 19z m1425 -1774 l210 -210 -873 -873
-872 -872 -570 570 -570 570 212 212 213 213 357 -357 358 -358 658 658 c361
361 659 657 662 657 3 0 100 -95 215 -210z"/>
</g>
</svg>
